<?xml version="1.0" standalone="no"?>
<!DOCTYPE svg PUBLIC "-//W3C//DTD SVG 20010904//EN"
 "http://www.w3.org/TR/2001/REC-SVG-20010904/DTD/svg10.dtd">
<svg version="1.0" xmlns="http://www.w3.org/2000/svg"
 width="84.000000pt" height="87.000000pt" viewBox="0 0 84.000000 87.000000"
 preserveAspectRatio="xMidYMid meet">
<metadata>
Created by potrace 1.10, written by Peter Selinger 2001-2011
</metadata>
<g transform="translate(0.000000,87.000000) scale(0.100000,-0.100000)"
fill="#000000" stroke="none">
<path d="M310 815 c-14 -8 -32 -14 -40 -15 -24 0 -86 -34 -122 -67 -39 -34
-98 -107 -98 -121 0 -5 -6 -15 -14 -21 -38 -32 -38 -310 0 -342 8 -6 14 -16
14 -20 0 -20 76 -110 119 -141 72 -52 106 -61 233 -65 95 -3 122 -1 140 11 12
9 29 16 36 16 39 0 160 119 199 195 24 46 26 60 26 175 0 117 -2 128 -26 170
-15 25 -31 54 -36 66 -11 25 -111 114 -127 114 -6 0 -17 7 -24 15 -7 8 -24 15
-39 15 -14 1 -37 7 -51 15 -15 9 -53 14 -95 14 -42 0 -80 -5 -95 -14z m215
-180 c0 -35 -3 -40 -25 -43 -54 -8 -71 -57 -22 -68 49 -11 52 -13 52 -48 0
-40 -22 -66 -56 -66 l-24 0 0 -115 c0 -125 -4 -132 -61 -129 -58 3 -59 4 -59
123 0 100 -2 111 -20 121 -27 14 -28 85 -2 114 10 12 24 41 31 66 7 25 22 55
34 68 19 20 29 22 87 20 l65 -3 0 -40z"/>
</g>
</svg>
