<?xml version="1.0" standalone="no"?>
<!DOCTYPE svg PUBLIC "-//W3C//DTD SVG 20010904//EN"
 "http://www.w3.org/TR/2001/REC-SVG-20010904/DTD/svg10.dtd">
<svg version="1.0" xmlns="http://www.w3.org/2000/svg"
 width="84.000000pt" height="87.000000pt" viewBox="0 0 84.000000 87.000000"
 preserveAspectRatio="xMidYMid meet">
<metadata>
Created by potrace 1.10, written by Peter Selinger 2001-2011
</metadata>
<g transform="translate(0.000000,87.000000) scale(0.100000,-0.100000)"
fill="#000000" stroke="none">
<path d="M310 815 c-14 -8 -32 -14 -40 -15 -24 0 -86 -34 -122 -67 -39 -34
-98 -107 -98 -121 0 -5 -6 -15 -14 -21 -38 -32 -38 -310 0 -342 8 -6 14 -16
14 -20 0 -20 76 -110 119 -141 72 -52 106 -61 233 -65 95 -3 122 -1 140 11 12
9 29 16 36 16 39 0 160 119 199 195 24 46 26 60 26 175 0 117 -2 128 -26 170
-15 25 -31 54 -36 66 -11 25 -111 114 -127 114 -6 0 -17 7 -24 15 -7 8 -24 15
-39 15 -14 1 -37 7 -51 15 -15 9 -53 14 -95 14 -42 0 -80 -5 -95 -14z m149
-199 c10 -12 8 -17 -7 -25 -16 -9 -19 -18 -14 -56 4 -42 2 -49 -28 -80 l-33
-34 36 -40 c48 -53 55 -85 31 -130 -33 -62 -115 -86 -196 -58 -54 19 -78 45
-78 83 0 36 39 76 100 102 l34 14 -29 22 c-86 61 -100 119 -42 173 34 33 55
39 153 42 43 1 65 -3 73 -13z m129 -124 c3 -34 6 -36 55 -46 30 -7 37 -35 10
-38 -10 0 -22 -2 -28 -3 -5 -2 -15 -3 -22 -4 -6 0 -13 -18 -15 -38 -3 -33 -6
-38 -28 -38 -22 0 -25 5 -28 38 -2 20 -6 38 -10 38 -4 1 -17 3 -29 4 -12 1
-29 5 -38 9 -26 10 -1 34 38 38 26 2 33 8 35 28 5 43 11 52 34 48 18 -2 24
-11 26 -36z"/>
<path d="M285 559 c-12 -36 3 -86 27 -92 33 -9 51 11 44 51 -8 54 -58 82 -71
41z"/>
<path d="M288 328 c-16 -5 -28 -13 -28 -18 0 -5 -3 -15 -6 -23 -9 -25 31 -57
71 -57 64 0 86 73 29 98 -29 14 -30 14 -66 0z"/>
</g>
</svg>
