<?xml version="1.0" standalone="no"?>
<!DOCTYPE svg PUBLIC "-//W3C//DTD SVG 20010904//EN"
 "http://www.w3.org/TR/2001/REC-SVG-20010904/DTD/svg10.dtd">
<svg version="1.0" xmlns="http://www.w3.org/2000/svg"
 width="84.000000pt" height="87.000000pt" viewBox="0 0 84.000000 87.000000"
 preserveAspectRatio="xMidYMid meet">
<metadata>
Created by potrace 1.10, written by Peter Selinger 2001-2011
</metadata>
<g transform="translate(0.000000,87.000000) scale(0.100000,-0.100000)"
fill="#000000" stroke="none">
<path d="M300 815 c-14 -8 -33 -14 -43 -15 -44 -1 -207 -143 -207 -181 0 -9
-6 -22 -14 -28 -13 -11 -19 -35 -32 -150 -11 -90 20 -196 80 -274 33 -42 128
-117 148 -117 8 0 24 -7 36 -16 18 -12 49 -16 135 -16 98 0 119 3 167 25 30
14 72 38 92 54 42 32 108 115 108 135 0 8 5 19 11 25 7 7 17 47 24 90 15 97 1
194 -39 268 -28 51 -113 140 -150 156 -12 5 -28 13 -36 18 -65 37 -234 54
-280 26z m45 -375 l0 -235 -30 0 -30 0 -3 225 c-1 123 0 231 3 238 3 8 16 12
32 10 l28 -3 0 -235z m162 228 c5 -7 7 -24 3 -38 -5 -20 -12 -25 -35 -25 -24
0 -31 5 -33 23 -2 13 -1 30 2 38 7 17 50 19 63 2z m-2 -288 l0 -175 -30 0 -30
0 -3 165 c-1 90 0 170 3 178 3 8 16 12 32 10 l28 -3 0 -175z"/>
</g>
</svg>
