<?xml version="1.0" standalone="no"?>
<!DOCTYPE svg PUBLIC "-//W3C//DTD SVG 20010904//EN"
 "http://www.w3.org/TR/2001/REC-SVG-20010904/DTD/svg10.dtd">
<svg version="1.0" xmlns="http://www.w3.org/2000/svg"
 width="84.000000pt" height="87.000000pt" viewBox="0 0 84.000000 87.000000"
 preserveAspectRatio="xMidYMid meet">
<metadata>
Created by potrace 1.10, written by Peter Selinger 2001-2011
</metadata>
<g transform="translate(0.000000,87.000000) scale(0.100000,-0.100000)"
fill="#000000" stroke="none">
<path d="M310 815 c-14 -8 -37 -14 -51 -15 -15 0 -32 -7 -39 -15 -7 -8 -18
-15 -24 -15 -23 -1 -146 -133 -146 -158 0 -5 -6 -15 -14 -21 -26 -22 -42 -186
-26 -261 13 -60 15 -66 33 -95 56 -94 129 -163 207 -194 53 -22 263 -27 292
-7 12 9 29 16 36 16 31 0 192 148 192 177 0 6 6 24 14 40 8 15 18 56 23 91 19
136 -30 277 -126 363 -30 27 -60 49 -67 49 -6 0 -17 7 -24 15 -7 8 -24 15 -39
15 -14 1 -37 7 -51 15 -15 9 -53 14 -95 14 -42 0 -80 -5 -95 -14z m190 -180
c7 -8 18 -15 26 -15 38 0 47 -109 12 -147 l-22 -23 21 -28 c47 -64 38 -125
-25 -167 -37 -24 -46 -26 -143 -23 l-104 3 -3 195 c-1 107 0 200 2 207 8 20
219 18 236 -2z"/>
<path d="M354 566 c-3 -8 -4 -31 -2 -52 3 -36 5 -39 37 -42 37 -4 81 28 81 59
0 36 -104 67 -116 35z"/>
<path d="M357 394 c-4 -4 -7 -25 -7 -46 0 -48 18 -57 74 -36 52 19 62 53 19
69 -42 16 -77 21 -86 13z"/>
</g>
</svg>
