<?xml version="1.0" standalone="no"?>
<!DOCTYPE svg PUBLIC "-//W3C//DTD SVG 20010904//EN"
 "http://www.w3.org/TR/2001/REC-SVG-20010904/DTD/svg10.dtd">
<svg version="1.0" xmlns="http://www.w3.org/2000/svg"
 width="76.000000pt" height="57.000000pt" viewBox="0 0 76.000000 57.000000"
 preserveAspectRatio="xMidYMid meet">
<metadata>
Created by potrace 1.10, written by Peter Selinger 2001-2011
</metadata>
<g transform="translate(0.000000,57.000000) scale(0.100000,-0.100000)"
fill="#000000" stroke="none">
<path d="M508 380 l-237 -181 -128 100 c-70 55 -128 99 -129 98 -1 -1 -4 -21
-5 -44 -3 -40 2 -47 126 -197 l129 -156 81 78 c44 44 154 150 245 236 164 157
164 157 165 202 0 24 -2 44 -5 44 -3 0 -112 -81 -242 -180z m225 116 c3 -8
-12 -30 -37 -52 -24 -22 -128 -120 -231 -219 -102 -99 -190 -181 -195 -183 -4
-2 -54 52 -111 120 -56 68 -110 132 -120 143 -12 13 -15 25 -9 34 7 12 17 8
52 -21 81 -67 177 -138 185 -138 15 1 243 164 303 217 28 25 145 112 151 112
4 1 9 -5 12 -13z"/>
</g>
</svg>
