<?xml version="1.0" standalone="no"?>
<!DOCTYPE svg PUBLIC "-//W3C//DTD SVG 20010904//EN"
 "http://www.w3.org/TR/2001/REC-SVG-20010904/DTD/svg10.dtd">
<svg version="1.0" xmlns="http://www.w3.org/2000/svg"
 width="60.000000pt" height="56.000000pt" viewBox="0 0 60.000000 56.000000"
 preserveAspectRatio="xMidYMid meet">
<metadata>
Created by potrace 1.10, written by Peter Selinger 2001-2011
</metadata>
<g transform="translate(0.000000,56.000000) scale(0.100000,-0.100000)"
fill="#000000" stroke="none">
<path d="M267 549 c-77 -13 -130 -78 -131 -160 -1 -41 -4 -49 -23 -54 -52 -13
-110 -89 -100 -132 3 -13 9 -6 24 27 13 30 35 55 61 73 38 25 41 25 47 8 7
-22 79 -91 95 -91 6 0 10 -19 10 -43 0 -23 8 -59 18 -79 l19 -36 -51 -23 c-42
-19 -47 -24 -28 -27 13 -2 38 6 57 17 l35 20 35 -20 c71 -42 180 -22 228 42
24 33 42 115 21 98 -8 -6 -14 -18 -14 -25 0 -30 -49 -91 -82 -103 -18 -7 -40
-16 -48 -20 -8 -5 -22 -5 -30 -1 -8 5 -33 16 -56 25 l-41 17 19 36 c10 20 18
56 18 79 0 31 4 43 14 43 19 0 75 48 96 82 l17 28 41 -42 c23 -23 43 -45 43
-50 1 -4 3 -12 4 -18 1 -5 3 -14 4 -20 2 -21 21 -9 21 14 0 34 -40 88 -82 110
-32 18 -35 23 -31 55 5 43 -29 115 -68 144 -33 24 -92 35 -142 26z m159 -81
c14 -30 34 -91 34 -105 0 -6 -23 -13 -51 -15 -30 -3 -62 -14 -80 -27 l-29 -22
-29 22 c-16 12 -49 24 -74 26 l-45 5 5 42 c8 57 37 101 81 120 20 10 43 20 51
24 20 11 125 -42 137 -70z m-166 -160 c14 -7 26 -13 28 -14 5 -3 -27 -64 -33
-64 -12 0 -85 74 -85 85 0 16 52 12 90 -7z m177 8 c9 -9 -32 -55 -64 -70 -32
-15 -33 -15 -48 14 -16 30 -16 31 32 55 25 13 68 14 80 1z m-117 -66 c10 -18
8 -20 -20 -20 -28 0 -29 2 -18 20 7 11 16 20 20 20 4 0 12 -9 18 -20z m10 -82
c-14 -92 -45 -97 -59 -10 l-8 52 37 0 37 0 -7 -42z"/>
<path d="M10 139 c0 -31 32 -83 65 -105 24 -16 113 -38 100 -25 -4 3 -30 17
-58 31 -38 19 -56 36 -72 67 -27 55 -35 62 -35 32z"/>
</g>
</svg>
