<?xml version="1.0" standalone="no"?>
<!DOCTYPE svg PUBLIC "-//W3C//DTD SVG 20010904//EN"
 "http://www.w3.org/TR/2001/REC-SVG-20010904/DTD/svg10.dtd">
<svg version="1.0" xmlns="http://www.w3.org/2000/svg"
 width="63.000000pt" height="18.000000pt" viewBox="0 0 63.000000 18.000000"
 preserveAspectRatio="xMidYMid meet">
<metadata>
Created by potrace 1.10, written by Peter Selinger 2001-2011
</metadata>
<g transform="translate(0.000000,18.000000) scale(0.100000,-0.100000)"
fill="#000000" stroke="none">
<path d="M22 168 c-13 -17 -14 -168 -2 -168 6 0 10 18 10 40 0 40 0 40 40 40
22 0 40 5 40 10 0 6 -18 10 -40 10 -38 0 -40 2 -40 30 0 29 2 30 45 30 25 0
45 5 45 10 0 14 -86 12 -98 -2z"/>
<path d="M190 167 c-76 -38 -53 -160 31 -160 90 0 102 141 14 167 -11 3 -31 0
-45 -7z m62 -24 c25 -23 24 -84 -3 -109 -19 -17 -23 -17 -47 -3 -21 12 -28 23
-30 56 -2 33 1 44 20 57 28 20 37 20 60 -1z"/>
<path d="M330 90 c0 -77 2 -90 16 -90 15 0 16 9 11 65 -4 36 -3 65 1 65 4 -1
23 -29 43 -63 53 -90 64 -87 64 19 0 59 -4 89 -12 91 -8 3 -13 -16 -15 -62
l-3 -67 -38 66 c-54 93 -67 88 -67 -24z"/>
<path d="M490 169 c0 -5 11 -9 25 -9 25 0 25 -1 25 -80 0 -64 3 -80 15 -80 12
0 15 16 15 80 0 79 0 80 25 80 14 0 25 4 25 9 0 5 -29 9 -65 9 -36 0 -65 -4
-65 -9z"/>
</g>
</svg>
