<?xml version="1.0" standalone="no"?>
<!DOCTYPE svg PUBLIC "-//W3C//DTD SVG 20010904//EN"
 "http://www.w3.org/TR/2001/REC-SVG-20010904/DTD/svg10.dtd">
<svg version="1.0" xmlns="http://www.w3.org/2000/svg"
 width="56.000000pt" height="56.000000pt" viewBox="0 0 56.000000 56.000000"
 preserveAspectRatio="xMidYMid meet">
<metadata>
Created by potrace 1.10, written by Peter Selinger 2001-2011
</metadata>
<g transform="translate(0.000000,56.000000) scale(0.100000,-0.100000)"
fill="#000000" stroke="none">
<path d="M11 547 c-13 -17 -13 -517 1 -534 12 -15 516 -17 534 -2 9 8 13 80
13 274 1 220 -1 264 -13 268 -8 3 -129 6 -270 6 -190 0 -257 -3 -265 -12z
m169 -87 l0 -80 -80 0 -80 0 0 80 0 80 80 0 80 0 0 -80z m180 0 l0 -80 -80 0
-80 0 0 73 c0 41 3 77 7 80 3 4 39 7 80 7 l73 0 0 -80z m180 0 l0 -80 -77 0
-78 0 2 77 c1 43 2 79 3 81 0 1 34 2 75 2 l75 0 0 -80z m-360 -180 l0 -80 -80
0 -80 0 0 73 c0 41 3 77 7 80 3 4 39 7 80 7 l73 0 0 -80z m180 0 l0 -80 -80 0
-80 0 0 73 c0 41 3 77 7 80 3 4 39 7 80 7 l73 0 0 -80z m180 0 l0 -80 -77 0
-78 0 2 77 c1 43 2 79 3 81 0 1 34 2 75 2 l75 0 0 -80z m-360 -185 l0 -75 -80
0 -80 0 0 75 0 75 80 0 80 0 0 -75z m180 0 l0 -75 -80 0 -80 0 0 75 0 75 80 0
80 0 0 -75z m180 0 l0 -75 -77 0 -78 0 0 75 0 75 78 0 77 0 0 -75z"/>
</g>
</svg>
