<?xml version="1.0" standalone="no"?>
<!DOCTYPE svg PUBLIC "-//W3C//DTD SVG 20010904//EN"
 "http://www.w3.org/TR/2001/REC-SVG-20010904/DTD/svg10.dtd">
<svg version="1.0" xmlns="http://www.w3.org/2000/svg"
 width="75.000000pt" height="57.000000pt" viewBox="0 0 75.000000 57.000000"
 preserveAspectRatio="xMidYMid meet">
<metadata>
Created by potrace 1.10, written by Peter Selinger 2001-2011
</metadata>
<g transform="translate(0.000000,57.000000) scale(0.100000,-0.100000)"
fill="#000000" stroke="none">
<path d="M16 563 c-3 -3 -6 -26 -6 -50 l0 -43 50 0 50 0 0 51 c0 36 -4 49 -12
46 -7 -2 -12 -18 -12 -35 1 -23 -3 -33 -17 -37 -28 -9 -39 2 -33 34 6 27 -6
48 -20 34z"/>
<path d="M170 521 l0 -51 285 0 285 0 0 51 c0 36 -4 49 -12 46 -7 -2 -13 -15
-14 -28 -1 -13 -2 -29 -2 -36 -2 -8 -69 -11 -259 -9 l-258 2 0 33 c0 19 -6 36
-12 38 -9 3 -13 -10 -13 -46z"/>
<path d="M10 360 l0 -50 50 0 50 0 0 50 0 50 -50 0 -50 0 0 -50z m73 10 c3
-13 -1 -24 -13 -30 -21 -11 -30 -4 -30 27 0 29 35 32 43 3z"/>
<path d="M170 360 l0 -50 285 0 285 0 0 50 0 50 -285 0 -285 0 0 -50z m547 13
c12 -32 -15 -36 -261 -35 -135 0 -249 3 -255 6 -5 3 -7 15 -4 25 5 18 18 19
260 18 210 0 256 -3 260 -14z"/>
<path d="M14 246 c-3 -8 -4 -31 -2 -52 3 -37 3 -37 48 -37 l45 0 3 51 3 52
-46 0 c-30 0 -47 -5 -51 -14z m67 -32 c10 -13 10 -17 -2 -25 -30 -19 -57 -3
-45 26 7 20 30 19 47 -1z"/>
<path d="M172 210 l3 -51 280 0 280 0 3 51 3 50 -286 0 -286 0 3 -50z m545
-13 c-5 -13 -43 -15 -261 -14 -174 1 -257 5 -260 13 -12 30 12 34 254 36 251
3 280 -1 267 -35z"/>
<path d="M10 49 c0 -36 4 -49 13 -46 6 2 12 19 12 38 1 27 5 35 23 37 12 2 22
0 23 -5 0 -4 2 -18 5 -30 2 -14 -1 -23 -9 -23 -8 0 -7 -4 3 -10 26 -17 30 -11
30 40 l0 50 -50 0 -50 0 0 -51z"/>
<path d="M170 49 c0 -60 23 -65 28 -6 l3 36 257 -2 257 -2 0 -32 c0 -18 5 -35
12 -38 9 -3 13 9 13 45 l0 50 -285 0 -285 0 0 -51z"/>
</g>
</svg>
